<svg width="30" height="30" viewBox="0 0 30 30" fill="none" xmlns="http://www.w3.org/2000/svg">
<path fill-rule="evenodd" clip-rule="evenodd" d="M8.95203 0.421008C10.516 0.349008 11.0147 0.333008 14.9987 0.333008C18.9827 0.333008 19.4814 0.350341 21.044 0.421008C22.6067 0.491674 23.6734 0.741008 24.6067 1.10234C25.584 1.47167 26.4707 2.04901 27.204 2.79567C27.9507 3.52767 28.5267 4.41301 28.8947 5.39167C29.2574 6.32501 29.5054 7.39167 29.5774 8.95168C29.6494 10.5183 29.6654 11.017 29.6654 14.9997C29.6654 18.9837 29.648 19.4823 29.5774 21.0463C29.5067 22.6063 29.2574 23.673 28.8947 24.6063C28.5267 25.5851 27.9497 26.4719 27.204 27.205C26.4707 27.9517 25.584 28.5277 24.6067 28.8957C23.6734 29.2583 22.6067 29.5063 21.0467 29.5783C19.4814 29.6503 18.9827 29.6663 14.9987 29.6663C11.0147 29.6663 10.516 29.649 8.95203 29.5783C7.39203 29.5077 6.32537 29.2583 5.39203 28.8957C4.41326 28.5276 3.52646 27.9507 2.79336 27.205C2.0472 26.4726 1.46978 25.5862 1.10136 24.6077C0.740031 23.6743 0.492031 22.6077 0.420031 21.0477C0.348031 19.481 0.332031 18.9823 0.332031 14.9997C0.332031 11.0157 0.349365 10.517 0.420031 8.95434C0.490698 7.39167 0.740031 6.32501 1.10136 5.39167C1.47033 4.41312 2.04819 3.52676 2.7947 2.79434C3.52675 2.04834 4.41266 1.47093 5.3907 1.10234C6.32403 0.741008 7.3907 0.493008 8.9507 0.421008H8.95203ZM20.9254 3.06101C19.3787 2.99034 18.9147 2.97567 14.9987 2.97567C11.0827 2.97567 10.6187 2.99034 9.07203 3.06101C7.64136 3.12634 6.86537 3.36501 6.34803 3.56634C5.66403 3.83301 5.1747 4.14901 4.66137 4.66234C4.17476 5.13574 3.80027 5.71205 3.56536 6.34901C3.36403 6.86634 3.12536 7.64234 3.06003 9.07301C2.98936 10.6197 2.9747 11.0837 2.9747 14.9997C2.9747 18.9157 2.98936 19.3797 3.06003 20.9263C3.12536 22.357 3.36403 23.133 3.56536 23.6503C3.80003 24.2863 4.1747 24.8637 4.66137 25.337C5.1347 25.8237 5.71203 26.1983 6.34803 26.433C6.86537 26.6343 7.64136 26.873 9.07203 26.9383C10.6187 27.009 11.0814 27.0237 14.9987 27.0237C18.916 27.0237 19.3787 27.009 20.9254 26.9383C22.356 26.873 23.132 26.6343 23.6494 26.433C24.3334 26.1663 24.8227 25.8503 25.336 25.337C25.8227 24.8637 26.1974 24.2863 26.432 23.6503C26.6334 23.133 26.872 22.357 26.9374 20.9263C27.008 19.3797 27.0227 18.9157 27.0227 14.9997C27.0227 11.0837 27.008 10.6197 26.9374 9.07301C26.872 7.64234 26.6334 6.86634 26.432 6.34901C26.1654 5.66501 25.8494 5.17567 25.336 4.66234C24.8626 4.17577 24.2863 3.80129 23.6494 3.56634C23.132 3.36501 22.356 3.12634 20.9254 3.06101ZM13.1254 19.521C14.1716 19.9565 15.3365 20.0153 16.4213 19.6873C17.506 19.3593 18.4432 18.6649 19.0728 17.7227C19.7025 16.7804 19.9854 15.6488 19.8734 14.5211C19.7614 13.3935 19.2614 12.3396 18.4587 11.5397C17.947 11.0283 17.3283 10.6368 16.6471 10.3932C15.966 10.1497 15.2393 10.0602 14.5194 10.1312C13.7994 10.2022 13.1042 10.4319 12.4838 10.8038C11.8633 11.1758 11.333 11.6807 10.9311 12.2821C10.5292 12.8836 10.2656 13.5667 10.1594 14.2823C10.0532 14.9979 10.1069 15.7281 10.3168 16.4204C10.5266 17.1127 10.8873 17.7498 11.373 18.286C11.8586 18.8221 12.4571 19.2439 13.1254 19.521ZM9.66803 9.66901C10.3681 8.96898 11.1991 8.41368 12.1138 8.03482C13.0284 7.65597 14.0087 7.46097 14.9987 7.46097C15.9887 7.46097 16.969 7.65597 17.8836 8.03482C18.7983 8.41368 19.6293 8.96898 20.3294 9.66901C21.0294 10.369 21.5847 11.2001 21.9636 12.1147C22.3424 13.0294 22.5374 14.0097 22.5374 14.9997C22.5374 15.9897 22.3424 16.97 21.9636 17.8846C21.5847 18.7992 21.0294 19.6303 20.3294 20.3303C18.9156 21.7441 16.9981 22.5384 14.9987 22.5384C12.9993 22.5384 11.0818 21.7441 9.66803 20.3303C8.25425 18.9166 7.46 16.9991 7.46 14.9997C7.46 13.0003 8.25425 11.0828 9.66803 9.66901ZM24.2094 8.58368C24.3828 8.42003 24.5217 8.22325 24.6178 8.00497C24.7138 7.7867 24.7651 7.55137 24.7686 7.31291C24.7721 7.07446 24.7277 6.83774 24.638 6.61675C24.5484 6.39577 24.4153 6.19502 24.2466 6.02639C24.078 5.85776 23.8773 5.72468 23.6563 5.63503C23.4353 5.54538 23.1986 5.50098 22.9601 5.50445C22.7217 5.50793 22.4863 5.55921 22.2681 5.65527C22.0498 5.75133 21.853 5.8902 21.6894 6.06367C21.3711 6.40105 21.1969 6.84917 21.2036 7.31291C21.2104 7.77666 21.3976 8.21951 21.7256 8.54747C22.0535 8.87542 22.4964 9.06265 22.9601 9.06941C23.4239 9.07617 23.872 8.90193 24.2094 8.58368Z" fill="#FFCC00"/>
</svg>
