<svg width="30" height="30" viewBox="0 0 30 30" fill="none" xmlns="http://www.w3.org/2000/svg">
<path fill-rule="evenodd" clip-rule="evenodd" d="M0.332032 2.78368C0.332032 2.13372 0.590226 1.51038 1.04982 1.05079C1.5094 0.591206 2.13274 0.333011 2.7827 0.333011H27.212C27.5341 0.332485 27.8532 0.395495 28.1509 0.518433C28.4486 0.641372 28.7191 0.821824 28.947 1.04946C29.1749 1.27709 29.3557 1.54744 29.4789 1.84502C29.6022 2.14261 29.6655 2.46158 29.6654 2.78368V27.213C29.6657 27.5352 29.6025 27.8542 29.4795 28.152C29.3564 28.4497 29.1758 28.7202 28.9481 28.9481C28.7203 29.176 28.4499 29.3567 28.1522 29.4799C27.8546 29.6032 27.5355 29.6665 27.2134 29.6663H2.7827C2.46076 29.6663 2.14198 29.6029 1.84456 29.4797C1.54715 29.3564 1.27693 29.1758 1.04934 28.9481C0.821761 28.7204 0.641274 28.4501 0.518195 28.1526C0.395116 27.8551 0.331856 27.5363 0.332032 27.2143V2.78368ZM11.9427 11.517H15.9147V13.5117C16.488 12.365 17.9547 11.333 20.1587 11.333C24.384 11.333 25.3854 13.617 25.3854 17.8077V25.5703H21.1094V18.7623C21.1094 16.3757 20.536 15.029 19.08 15.029C17.06 15.029 16.22 16.481 16.22 18.7623V25.5703H11.9427V11.517ZM4.60937 25.3877H8.8867V11.333H4.60937V25.3863V25.3877ZM9.4987 6.74901C9.50676 7.11524 9.4416 7.47939 9.30702 7.8201C9.17244 8.1608 8.97117 8.47119 8.71501 8.73305C8.45885 8.99492 8.15296 9.20298 7.81531 9.34502C7.47765 9.48707 7.11502 9.56023 6.7487 9.56023C6.38238 9.56023 6.01975 9.48707 5.68209 9.34502C5.34443 9.20298 5.03855 8.99492 4.78239 8.73305C4.52623 8.47119 4.32496 8.1608 4.19038 7.8201C4.0558 7.47939 3.99063 7.11524 3.9987 6.74901C4.01453 6.03015 4.31121 5.34607 4.82521 4.84326C5.33921 4.34045 6.02966 4.0589 6.7487 4.0589C7.46773 4.0589 8.15818 4.34045 8.67218 4.84326C9.18619 5.34607 9.48287 6.03015 9.4987 6.74901Z" fill="#FFCC00"/>
</svg>
